<?xml version="1.0" encoding="iso-8859-1"?>
<!-- Generator: Adobe Illustrator 16.0.0, SVG Export Plug-In . SVG Version: 6.00 Build 0)  -->
<!DOCTYPE svg PUBLIC "-//W3C//DTD SVG 1.1//EN" "http://www.w3.org/Graphics/SVG/1.1/DTD/svg11.dtd">
<svg version="1.1" id="Capa_1" xmlns="http://www.w3.org/2000/svg" xmlns:xlink="http://www.w3.org/1999/xlink" x="0px" y="0px"
	 width="983.613px" height="983.613px" viewBox="0 0 983.613 983.613" style="enable-background:new 0 0 983.613 983.613;"
	 xml:space="preserve">
<g>
	<g>
		<path d="M298.21,33.725h384.727h1.535c5.523,0,10-4.477,10-10V10c0-5.523-4.477-10-10-10h-1.535H298.21h-1.535
			c-5.523,0-10,4.477-10,10v13.725c0,5.523,4.477,10,10,10H298.21z"/>
		<path d="M245.944,63.641v872.988H138.037c-5.523,0-10,4.479-10,10v26.984c0,5.522,4.477,10,10,10h707.539c5.521,0,10-4.478,10-10
			v-26.984c0-5.521-4.479-10-10-10H736.668V63.641c0-5.523-4.477-10-10-10H255.944C250.421,53.641,245.944,58.118,245.944,63.641z
			 M641.232,92.795c0-5.523,4.477-10,10-10h43.549c5.523,0,10,4.477,10,10v43.549c0,5.523-4.477,10-10,10h-43.549
			c-5.523,0-10-4.477-10-10V92.795z M641.232,180.175c0-5.523,4.477-10,10-10h43.549c5.523,0,10,4.477,10,10v43.549
			c0,5.522-4.477,10-10,10h-43.549c-5.523,0-10-4.478-10-10V180.175z M641.232,267.554c0-5.522,4.477-10,10-10h43.549
			c5.523,0,10,4.478,10,10v43.549c0,5.523-4.477,10-10,10h-43.549c-5.523,0-10-4.477-10-10V267.554z M641.232,354.934
			c0-5.523,4.477-10,10-10h43.549c5.523,0,10,4.477,10,10v43.548c0,5.522-4.477,10-10,10h-43.549c-5.523,0-10-4.478-10-10V354.934z
			 M641.232,442.312c0-5.522,4.477-10,10-10h43.549c5.523,0,10,4.478,10,10v43.55c0,5.522-4.477,10-10,10h-43.549
			c-5.523,0-10-4.478-10-10V442.312z M641.232,529.693c0-5.523,4.477-10,10-10h43.549c5.523,0,10,4.477,10,10v43.549
			c0,5.521-4.477,10-10,10h-43.549c-5.523,0-10-4.479-10-10V529.693z M641.232,617.073c0-5.523,4.477-10,10-10h43.549
			c5.523,0,10,4.477,10,10v43.549c0,5.522-4.477,10-10,10h-43.549c-5.523,0-10-4.478-10-10V617.073z M641.232,704.452
			c0-5.522,4.477-10,10-10h43.549c5.523,0,10,4.478,10,10v43.549c0,5.522-4.477,10-10,10h-43.549c-5.523,0-10-4.478-10-10V704.452z
			 M641.232,791.832c0-5.523,4.477-10,10-10h43.549c5.523,0,10,4.477,10,10v43.549c0,5.523-4.477,10-10,10h-43.549
			c-5.523,0-10-4.477-10-10V791.832z M641.232,879.212c0-5.522,4.477-10,10-10h43.549c5.523,0,10,4.478,10,10v43.549
			c0,5.522-4.477,10-10,10h-43.549c-5.523,0-10-4.478-10-10V879.212z M550.383,92.795c0-5.523,4.477-10,10-10h43.549
			c5.523,0,10,4.477,10,10v43.549c0,5.523-4.477,10-10,10h-43.549c-5.523,0-10-4.477-10-10V92.795z M550.383,180.175
			c0-5.523,4.477-10,10-10h43.549c5.523,0,10,4.477,10,10v43.549c0,5.522-4.477,10-10,10h-43.549c-5.523,0-10-4.478-10-10V180.175z
			 M550.383,267.554c0-5.522,4.477-10,10-10h43.549c5.523,0,10,4.478,10,10v43.549c0,5.523-4.477,10-10,10h-43.549
			c-5.523,0-10-4.477-10-10V267.554z M550.383,354.934c0-5.523,4.477-10,10-10h43.549c5.523,0,10,4.477,10,10v43.548
			c0,5.522-4.477,10-10,10h-43.549c-5.523,0-10-4.478-10-10V354.934z M550.383,442.312c0-5.522,4.477-10,10-10h43.549
			c5.523,0,10,4.478,10,10v43.55c0,5.522-4.477,10-10,10h-43.549c-5.523,0-10-4.478-10-10V442.312z M550.383,529.693
			c0-5.523,4.477-10,10-10h43.549c5.523,0,10,4.477,10,10v43.549c0,5.521-4.477,10-10,10h-43.549c-5.523,0-10-4.479-10-10V529.693z
			 M550.383,617.073c0-5.523,4.477-10,10-10h43.549c5.523,0,10,4.477,10,10v43.549c0,5.522-4.477,10-10,10h-43.549
			c-5.523,0-10-4.478-10-10V617.073z M550.383,704.452c0-5.522,4.477-10,10-10h43.549c5.523,0,10,4.478,10,10v43.549
			c0,5.522-4.477,10-10,10h-43.549c-5.523,0-10-4.478-10-10V704.452z M550.383,791.832c0-5.523,4.477-10,10-10h43.549
			c5.523,0,10,4.477,10,10v43.549c0,5.523-4.477,10-10,10h-43.549c-5.523,0-10-4.477-10-10V791.832z M459.532,92.795
			c0-5.523,4.478-10,10-10h43.55c5.521,0,10,4.477,10,10v43.549c0,5.523-4.479,10-10,10h-43.55c-5.522,0-10-4.477-10-10V92.795z
			 M459.532,180.175c0-5.523,4.478-10,10-10h43.55c5.521,0,10,4.477,10,10v43.549c0,5.522-4.479,10-10,10h-43.55
			c-5.522,0-10-4.478-10-10V180.175z M459.532,267.554c0-5.522,4.478-10,10-10h43.55c5.521,0,10,4.478,10,10v43.549
			c0,5.523-4.479,10-10,10h-43.55c-5.522,0-10-4.477-10-10V267.554z M459.532,354.934c0-5.523,4.478-10,10-10h43.55
			c5.521,0,10,4.477,10,10v43.548c0,5.522-4.479,10-10,10h-43.55c-5.522,0-10-4.478-10-10V354.934z M459.532,442.312
			c0-5.522,4.478-10,10-10h43.55c5.521,0,10,4.478,10,10v43.55c0,5.522-4.479,10-10,10h-43.55c-5.522,0-10-4.478-10-10V442.312z
			 M459.532,529.693c0-5.523,4.478-10,10-10h43.55c5.521,0,10,4.477,10,10v43.549c0,5.521-4.479,10-10,10h-43.55
			c-5.522,0-10-4.479-10-10V529.693z M459.532,617.073c0-5.523,4.478-10,10-10h43.55c5.521,0,10,4.477,10,10v43.549
			c0,5.522-4.479,10-10,10h-43.55c-5.522,0-10-4.478-10-10V617.073z M459.532,704.452c0-5.522,4.478-10,10-10h43.55
			c5.521,0,10,4.478,10,10v43.549c0,5.522-4.479,10-10,10h-43.55c-5.522,0-10-4.478-10-10V704.452z M459.532,791.832
			c0-5.523,4.478-10,10-10h43.55c5.521,0,10,4.477,10,10v43.549c0,5.523-4.479,10-10,10h-43.55c-5.522,0-10-4.477-10-10V791.832z
			 M368.681,92.795c0-5.523,4.477-10,10-10h43.549c5.523,0,10,4.477,10,10v43.549c0,5.523-4.477,10-10,10h-43.549
			c-5.523,0-10-4.477-10-10V92.795z M368.681,180.175c0-5.523,4.477-10,10-10h43.549c5.523,0,10,4.477,10,10v43.549
			c0,5.522-4.477,10-10,10h-43.549c-5.523,0-10-4.478-10-10V180.175z M368.681,267.554c0-5.522,4.477-10,10-10h43.549
			c5.523,0,10,4.478,10,10v43.549c0,5.523-4.477,10-10,10h-43.549c-5.523,0-10-4.477-10-10V267.554z M368.681,354.934
			c0-5.523,4.477-10,10-10h43.549c5.523,0,10,4.477,10,10v43.548c0,5.522-4.477,10-10,10h-43.549c-5.523,0-10-4.478-10-10V354.934z
			 M368.681,442.312c0-5.522,4.477-10,10-10h43.549c5.523,0,10,4.478,10,10v43.55c0,5.522-4.477,10-10,10h-43.549
			c-5.523,0-10-4.478-10-10V442.312z M368.681,529.693c0-5.523,4.477-10,10-10h43.549c5.523,0,10,4.477,10,10v43.549
			c0,5.521-4.477,10-10,10h-43.549c-5.523,0-10-4.479-10-10V529.693z M368.681,617.073c0-5.523,4.477-10,10-10h43.549
			c5.523,0,10,4.477,10,10v43.549c0,5.522-4.477,10-10,10h-43.549c-5.523,0-10-4.478-10-10V617.073z M368.681,704.452
			c0-5.522,4.477-10,10-10h43.549c5.523,0,10,4.478,10,10v43.549c0,5.522-4.477,10-10,10h-43.549c-5.523,0-10-4.478-10-10V704.452z
			 M368.681,791.832c0-5.523,4.477-10,10-10h43.549c5.523,0,10,4.477,10,10v43.549c0,5.523-4.477,10-10,10h-43.549
			c-5.523,0-10-4.477-10-10V791.832z M368.681,879.212c0-5.522,4.477-10,10-10h44.111h9.438h118.153h9.438h44.111
			c5.523,0,10,4.478,10,10v43.549c0,5.522-4.477,10-10,10H559.82h-9.438H432.23h-9.438h-44.111c-5.523,0-10-4.478-10-10V879.212
			L368.681,879.212z M277.831,92.795c0-5.523,4.477-10,10-10h43.549c5.522,0,10,4.477,10,10v43.549c0,5.523-4.478,10-10,10h-43.549
			c-5.523,0-10-4.477-10-10V92.795z M277.831,180.175c0-5.523,4.477-10,10-10h43.549c5.522,0,10,4.477,10,10v43.549
			c0,5.522-4.478,10-10,10h-43.549c-5.523,0-10-4.478-10-10V180.175z M277.831,267.554c0-5.522,4.477-10,10-10h43.549
			c5.522,0,10,4.478,10,10v43.549c0,5.523-4.478,10-10,10h-43.549c-5.523,0-10-4.477-10-10V267.554z M277.831,354.934
			c0-5.523,4.477-10,10-10h43.549c5.522,0,10,4.477,10,10v43.548c0,5.522-4.478,10-10,10h-43.549c-5.523,0-10-4.478-10-10V354.934z
			 M277.831,442.312c0-5.522,4.477-10,10-10h43.549c5.522,0,10,4.478,10,10v43.55c0,5.522-4.478,10-10,10h-43.549
			c-5.523,0-10-4.478-10-10V442.312z M277.831,529.693c0-5.523,4.477-10,10-10h43.549c5.522,0,10,4.477,10,10v43.549
			c0,5.521-4.478,10-10,10h-43.549c-5.523,0-10-4.479-10-10V529.693z M277.831,617.073c0-5.523,4.477-10,10-10h43.549
			c5.522,0,10,4.477,10,10v43.549c0,5.522-4.478,10-10,10h-43.549c-5.523,0-10-4.478-10-10V617.073z M277.831,704.452
			c0-5.522,4.477-10,10-10h43.549c5.522,0,10,4.478,10,10v43.549c0,5.522-4.478,10-10,10h-43.549c-5.523,0-10-4.478-10-10V704.452z
			 M277.831,791.832c0-5.523,4.477-10,10-10h43.549c5.522,0,10,4.477,10,10v43.549c0,5.523-4.478,10-10,10h-43.549
			c-5.523,0-10-4.477-10-10V791.832z M277.831,879.212c0-5.522,4.477-10,10-10h43.549c5.522,0,10,4.478,10,10v43.549
			c0,5.522-4.478,10-10,10h-43.549c-5.523,0-10-4.478-10-10V879.212z"/>
	</g>
</g>
<g>
</g>
<g>
</g>
<g>
</g>
<g>
</g>
<g>
</g>
<g>
</g>
<g>
</g>
<g>
</g>
<g>
</g>
<g>
</g>
<g>
</g>
<g>
</g>
<g>
</g>
<g>
</g>
<g>
</g>
</svg>
