<?xml version="1.0" encoding="iso-8859-1"?>
<!-- Generator: Adobe Illustrator 18.0.0, SVG Export Plug-In . SVG Version: 6.00 Build 0)  -->
<!DOCTYPE svg PUBLIC "-//W3C//DTD SVG 1.1//EN" "http://www.w3.org/Graphics/SVG/1.1/DTD/svg11.dtd">
<svg version="1.1" id="Capa_1" xmlns="http://www.w3.org/2000/svg" xmlns:xlink="http://www.w3.org/1999/xlink" x="0px" y="0px"
	 viewBox="0 0 487.024 487.024" style="enable-background:new 0 0 487.024 487.024;" xml:space="preserve">
<g>
	<path d="M81.554,190.683H50.912c-3.313,0-6,2.687-6,6v42.021c0,3.313,2.687,6,6,6h30.641c3.313,0,6-2.687,6-6v-42.021
		C87.554,193.37,84.867,190.683,81.554,190.683z M75.554,202.683v3.758H56.912v-3.758H75.554z M56.912,232.705v-14.264h18.641
		v14.264H56.912z"/>
	<path d="M114.821,244.705h30.642c3.313,0,6-2.687,6-6v-42.021c0-3.313-2.687-6-6-6h-30.642c-3.313,0-6,2.687-6,6v42.021
		C108.821,242.018,111.508,244.705,114.821,244.705z M120.821,232.705v-14.264h18.642v14.264H120.821z M139.463,202.683v3.758
		h-18.642v-3.758H139.463z"/>
	<path d="M81.554,255.468H50.912c-3.313,0-6,2.687-6,6v42.022c0,3.313,2.687,6,6,6h30.641c3.313,0,6-2.687,6-6v-42.022
		C87.554,258.154,84.867,255.468,81.554,255.468z M75.554,267.468v3.758H56.912v-3.758H75.554z M56.912,297.49v-14.265h18.641
		v14.265H56.912z"/>
	<path d="M226.881,210.685H196.24c-3.313,0-6,2.687-6,6v42.022c0,3.313,2.687,6,6,6h30.641c3.313,0,6-2.687,6-6v-42.022
		C232.881,213.372,230.194,210.685,226.881,210.685z M220.881,222.685v3.759H202.24v-3.759H220.881z M202.24,252.708v-14.264h18.641
		v14.264H202.24z"/>
	<path d="M290.79,210.685h-30.642c-3.313,0-6,2.687-6,6v42.022c0,3.313,2.687,6,6,6h30.642c3.313,0,6-2.687,6-6v-42.022
		C296.79,213.372,294.103,210.685,290.79,210.685z M284.79,222.685v3.759h-18.642v-3.759H284.79z M266.148,252.708v-14.264h18.642
		v14.264H266.148z"/>
	<path d="M226.881,275.471H196.24c-3.313,0-6,2.687-6,6v42.021c0,3.313,2.687,6,6,6h30.641c3.313,0,6-2.687,6-6v-42.021
		C232.881,278.157,230.194,275.471,226.881,275.471z M220.881,287.471v3.758H202.24v-3.758H220.881z M202.24,317.492v-14.264h18.641
		v14.264H202.24z"/>
	<path d="M341.567,284.844h30.641c3.313,0,6-2.687,6-6v-42.022c0-3.313-2.687-6-6-6h-30.641c-3.313,0-6,2.687-6,6v42.022
		C335.567,282.157,338.253,284.844,341.567,284.844z M347.567,272.844V258.58h18.641v14.264H347.567z M366.208,242.821v3.759
		h-18.641v-3.759H366.208z"/>
	<path d="M405.475,284.844h30.642c3.313,0,6-2.687,6-6v-42.022c0-3.313-2.687-6-6-6h-30.642c-3.313,0-6,2.687-6,6v42.022
		C399.475,282.157,402.162,284.844,405.475,284.844z M411.475,272.844V258.58h18.642v14.264H411.475z M430.117,242.821v3.759
		h-18.642v-3.759H430.117z"/>
	<path d="M341.567,349.628h30.641c3.313,0,6-2.687,6-6v-42.021c0-3.313-2.687-6-6-6h-30.641c-3.313,0-6,2.687-6,6v42.021
		C335.567,346.941,338.253,349.628,341.567,349.628z M347.567,337.628v-14.264h18.641v14.264H347.567z M366.208,307.606v3.758
		h-18.641v-3.758H366.208z"/>
	<path d="M481.822,371.065l-10.657-1.431V220.931h7.85c3.313,0,6-2.687,6-6v-64.779c0-3.313-2.687-6-6-6h-139.33v-14.141
		c0-3.313-2.687-6-6-6H194.36v-14c0-3.313-2.686-6-6-6H8.014c-3.314,0-6,2.687-6,6v64.785c0,3.313,2.686,6,6,6h7.85v127.714
		l-9.065-1.217c-3.283-0.447-6.304,1.864-6.745,5.148c-0.441,3.284,1.864,6.304,5.148,6.744l475.022,63.771
		c0.271,0.037,0.54,0.055,0.806,0.055c2.958,0,5.534-2.189,5.939-5.203C487.411,374.525,485.106,371.506,481.822,371.065z
		 M459.164,368.024l-6.54-0.878v-12.134c0-3.313-2.687-6-6-6h-4.508v-47.405c0-3.313-2.687-6-6-6h-30.642c-3.313,0-6,2.687-6,6
		v47.405h-4.501c-3.313,0-6,2.687-6,6v3.589l-63.13-8.475V220.931h133.32V368.024z M430.117,349.012h-18.642v-41.405h18.642V349.012
		z M440.625,361.012v4.523l-33.692-4.523H440.625z M284.79,328.872h-18.642v-41.401h18.642V328.872z M295.295,340.872v5.152
		l-38.378-5.152H295.295z M301.295,328.872h-4.505v-47.401c0-3.313-2.687-6-6-6h-30.642c-3.313,0-6,2.687-6,6v47.401h-4.504
		c-3.313,0-6,2.687-6,6v4.218l-63.13-8.475V200.802h133.33v147.713l-6.55-0.879v-12.763
		C307.295,331.558,304.608,328.872,301.295,328.872z M339.684,194.802v-38.649h133.33v52.779h-147.17v-8.13h7.84
		C336.998,200.802,339.684,198.115,339.684,194.802z M194.36,174.797v-38.785h133.324v52.79h-147.17v-8.005h7.846
		C191.674,180.797,194.36,178.11,194.36,174.797z M14.014,116.012H182.36v52.785H21.961c-0.032,0-0.064-0.005-0.097-0.005
		s-0.064,0.004-0.097,0.005h-7.753V116.012z M27.865,180.797h140.65v148.207l-6.55-0.879v-13.253c0-3.313-2.687-6-6-6h-4.502
		v-47.404c0-3.313-2.687-6-6-6h-30.642c-3.313,0-6,2.687-6,6v47.404h-4.506c-3.313,0-6,2.687-6,6v4.708l-70.45-9.458V180.797z
		 M139.463,308.872h-18.642v-41.404h18.642V308.872z M110.315,320.872h39.65v5.642l-39.65-5.323V320.872z"/>
</g>
<g>
</g>
<g>
</g>
<g>
</g>
<g>
</g>
<g>
</g>
<g>
</g>
<g>
</g>
<g>
</g>
<g>
</g>
<g>
</g>
<g>
</g>
<g>
</g>
<g>
</g>
<g>
</g>
<g>
</g>
</svg>
